<mxfile host="app.diagrams.net" agent="Mozilla/5.0 (Windows NT 10.0; Win64; x64; rv:131.0) Gecko/20100101 Firefox/131.0" version="24.8.0">
  <diagram name="Page-1" id="7P3Eh6vX80orw_PPyLPd">
    <mxGraphModel dx="1687" dy="887" grid="1" gridSize="10" guides="1" tooltips="1" connect="1" arrows="1" fold="1" page="1" pageScale="1" pageWidth="1169" pageHeight="827" math="0" shadow="0">
      <root>
        <mxCell id="0" />
        <mxCell id="1" parent="0" />
        <mxCell id="RbGLpRVcjz3CA3Kn4k5E-1" value="Pen-tester / Red-teamer" style="shape=umlActor;verticalLabelPosition=bottom;verticalAlign=top;html=1;outlineConnect=0;" vertex="1" parent="1">
          <mxGeometry x="70" y="290" width="30" height="70" as="geometry" />
        </mxCell>
        <mxCell id="RbGLpRVcjz3CA3Kn4k5E-2" value="Pen-testing Multi-Tool" style="swimlane;whiteSpace=wrap;html=1;" vertex="1" parent="1">
          <mxGeometry x="255" y="20" width="745" height="640" as="geometry" />
        </mxCell>
        <mxCell id="RbGLpRVcjz3CA3Kn4k5E-4" value="Scan &amp;amp; Attack Wi-Fi" style="ellipse;whiteSpace=wrap;html=1;" vertex="1" parent="RbGLpRVcjz3CA3Kn4k5E-2">
          <mxGeometry x="330" y="60" width="130" height="60" as="geometry" />
        </mxCell>
        <mxCell id="RbGLpRVcjz3CA3Kn4k5E-15" value="Pair &amp;amp; Capture Data" style="ellipse;whiteSpace=wrap;html=1;" vertex="1" parent="RbGLpRVcjz3CA3Kn4k5E-2">
          <mxGeometry x="330" y="165" width="130" height="60" as="geometry" />
        </mxCell>
        <mxCell id="RbGLpRVcjz3CA3Kn4k5E-25" value="Capture &amp;amp; Relay" style="ellipse;whiteSpace=wrap;html=1;" vertex="1" parent="RbGLpRVcjz3CA3Kn4k5E-2">
          <mxGeometry x="330" y="525" width="130" height="60" as="geometry" />
        </mxCell>
        <mxCell id="RbGLpRVcjz3CA3Kn4k5E-33" value="Read, Write &amp;amp; Emulate" style="ellipse;whiteSpace=wrap;html=1;" vertex="1" parent="RbGLpRVcjz3CA3Kn4k5E-2">
          <mxGeometry x="330" y="395" width="130" height="60" as="geometry" />
        </mxCell>
        <mxCell id="RbGLpRVcjz3CA3Kn4k5E-34" value="Read, Write &amp;amp; Emulate" style="ellipse;whiteSpace=wrap;html=1;" vertex="1" parent="RbGLpRVcjz3CA3Kn4k5E-2">
          <mxGeometry x="330" y="275" width="130" height="60" as="geometry" />
        </mxCell>
        <mxCell id="RbGLpRVcjz3CA3Kn4k5E-3" value="Target Network" style="shape=umlActor;verticalLabelPosition=bottom;verticalAlign=top;html=1;outlineConnect=0;" vertex="1" parent="1">
          <mxGeometry x="1040" y="75" width="30" height="70" as="geometry" />
        </mxCell>
        <mxCell id="RbGLpRVcjz3CA3Kn4k5E-8" value="" style="endArrow=none;html=1;rounded=0;exitX=0.5;exitY=0.5;exitDx=0;exitDy=0;exitPerimeter=0;entryX=0;entryY=0.5;entryDx=0;entryDy=0;" edge="1" parent="1" source="RbGLpRVcjz3CA3Kn4k5E-1" target="RbGLpRVcjz3CA3Kn4k5E-4">
          <mxGeometry width="50" height="50" relative="1" as="geometry">
            <mxPoint x="560" y="350" as="sourcePoint" />
            <mxPoint x="610" y="300" as="targetPoint" />
          </mxGeometry>
        </mxCell>
        <mxCell id="RbGLpRVcjz3CA3Kn4k5E-9" value="" style="endArrow=none;html=1;rounded=0;exitX=1;exitY=0.5;exitDx=0;exitDy=0;entryX=0.5;entryY=0.5;entryDx=0;entryDy=0;entryPerimeter=0;" edge="1" parent="1" source="RbGLpRVcjz3CA3Kn4k5E-4" target="RbGLpRVcjz3CA3Kn4k5E-3">
          <mxGeometry width="50" height="50" relative="1" as="geometry">
            <mxPoint x="560" y="350" as="sourcePoint" />
            <mxPoint x="610" y="300" as="targetPoint" />
          </mxGeometry>
        </mxCell>
        <mxCell id="RbGLpRVcjz3CA3Kn4k5E-16" value="" style="endArrow=none;html=1;rounded=0;entryX=0;entryY=0.5;entryDx=0;entryDy=0;" edge="1" parent="1" source="RbGLpRVcjz3CA3Kn4k5E-1" target="RbGLpRVcjz3CA3Kn4k5E-15">
          <mxGeometry width="50" height="50" relative="1" as="geometry">
            <mxPoint x="560" y="350" as="sourcePoint" />
            <mxPoint x="610" y="300" as="targetPoint" />
          </mxGeometry>
        </mxCell>
        <mxCell id="RbGLpRVcjz3CA3Kn4k5E-26" value="" style="endArrow=none;html=1;rounded=0;entryX=0.5;entryY=0.5;entryDx=0;entryDy=0;entryPerimeter=0;exitX=0;exitY=0.5;exitDx=0;exitDy=0;" edge="1" parent="1" source="RbGLpRVcjz3CA3Kn4k5E-25" target="RbGLpRVcjz3CA3Kn4k5E-1">
          <mxGeometry width="50" height="50" relative="1" as="geometry">
            <mxPoint x="560" y="350" as="sourcePoint" />
            <mxPoint x="610" y="300" as="targetPoint" />
          </mxGeometry>
        </mxCell>
        <mxCell id="RbGLpRVcjz3CA3Kn4k5E-28" value="Bluetooth Device" style="shape=umlActor;verticalLabelPosition=bottom;verticalAlign=top;html=1;outlineConnect=0;" vertex="1" parent="1">
          <mxGeometry x="1040" y="180" width="30" height="70" as="geometry" />
        </mxCell>
        <mxCell id="RbGLpRVcjz3CA3Kn4k5E-29" value="Near Field Communication Chip" style="shape=umlActor;verticalLabelPosition=bottom;verticalAlign=top;html=1;outlineConnect=0;" vertex="1" parent="1">
          <mxGeometry x="1040" y="290" width="30" height="70" as="geometry" />
        </mxCell>
        <mxCell id="RbGLpRVcjz3CA3Kn4k5E-30" value="&lt;div&gt;Radio Frequency&amp;nbsp;&lt;/div&gt;&lt;div&gt;Identification Chip&lt;br&gt;&lt;/div&gt;" style="shape=umlActor;verticalLabelPosition=bottom;verticalAlign=top;html=1;outlineConnect=0;" vertex="1" parent="1">
          <mxGeometry x="1040" y="410" width="30" height="70" as="geometry" />
        </mxCell>
        <mxCell id="RbGLpRVcjz3CA3Kn4k5E-31" value="&lt;div&gt;Infrared Emitting&amp;nbsp;&lt;/div&gt;&lt;div&gt;Device&lt;/div&gt;" style="shape=umlActor;verticalLabelPosition=bottom;verticalAlign=top;html=1;outlineConnect=0;" vertex="1" parent="1">
          <mxGeometry x="1040" y="540" width="30" height="70" as="geometry" />
        </mxCell>
        <mxCell id="RbGLpRVcjz3CA3Kn4k5E-32" value="" style="endArrow=none;html=1;rounded=0;entryX=0.5;entryY=0.5;entryDx=0;entryDy=0;entryPerimeter=0;exitX=1;exitY=0.5;exitDx=0;exitDy=0;" edge="1" parent="1" source="RbGLpRVcjz3CA3Kn4k5E-15" target="RbGLpRVcjz3CA3Kn4k5E-28">
          <mxGeometry width="50" height="50" relative="1" as="geometry">
            <mxPoint x="560" y="350" as="sourcePoint" />
            <mxPoint x="610" y="300" as="targetPoint" />
          </mxGeometry>
        </mxCell>
        <mxCell id="RbGLpRVcjz3CA3Kn4k5E-35" value="" style="endArrow=none;html=1;rounded=0;entryX=0.5;entryY=0.5;entryDx=0;entryDy=0;entryPerimeter=0;exitX=1;exitY=0.5;exitDx=0;exitDy=0;" edge="1" parent="1" source="RbGLpRVcjz3CA3Kn4k5E-34" target="RbGLpRVcjz3CA3Kn4k5E-29">
          <mxGeometry width="50" height="50" relative="1" as="geometry">
            <mxPoint x="560" y="350" as="sourcePoint" />
            <mxPoint x="610" y="300" as="targetPoint" />
          </mxGeometry>
        </mxCell>
        <mxCell id="RbGLpRVcjz3CA3Kn4k5E-36" value="" style="endArrow=none;html=1;rounded=0;entryX=0.5;entryY=0.5;entryDx=0;entryDy=0;entryPerimeter=0;exitX=1;exitY=0.5;exitDx=0;exitDy=0;" edge="1" parent="1" source="RbGLpRVcjz3CA3Kn4k5E-33" target="RbGLpRVcjz3CA3Kn4k5E-30">
          <mxGeometry width="50" height="50" relative="1" as="geometry">
            <mxPoint x="560" y="350" as="sourcePoint" />
            <mxPoint x="610" y="300" as="targetPoint" />
          </mxGeometry>
        </mxCell>
        <mxCell id="RbGLpRVcjz3CA3Kn4k5E-37" value="" style="endArrow=none;html=1;rounded=0;entryX=1;entryY=0.5;entryDx=0;entryDy=0;exitX=0.5;exitY=0.5;exitDx=0;exitDy=0;exitPerimeter=0;" edge="1" parent="1" source="RbGLpRVcjz3CA3Kn4k5E-31" target="RbGLpRVcjz3CA3Kn4k5E-25">
          <mxGeometry width="50" height="50" relative="1" as="geometry">
            <mxPoint x="560" y="350" as="sourcePoint" />
            <mxPoint x="610" y="300" as="targetPoint" />
          </mxGeometry>
        </mxCell>
        <mxCell id="RbGLpRVcjz3CA3Kn4k5E-38" value="" style="endArrow=none;html=1;rounded=0;entryX=0.5;entryY=0.5;entryDx=0;entryDy=0;entryPerimeter=0;exitX=0;exitY=0.5;exitDx=0;exitDy=0;" edge="1" parent="1" source="RbGLpRVcjz3CA3Kn4k5E-34" target="RbGLpRVcjz3CA3Kn4k5E-1">
          <mxGeometry width="50" height="50" relative="1" as="geometry">
            <mxPoint x="560" y="350" as="sourcePoint" />
            <mxPoint x="610" y="300" as="targetPoint" />
          </mxGeometry>
        </mxCell>
        <mxCell id="RbGLpRVcjz3CA3Kn4k5E-39" value="" style="endArrow=none;html=1;rounded=0;entryX=0.5;entryY=0.5;entryDx=0;entryDy=0;entryPerimeter=0;exitX=0;exitY=0.5;exitDx=0;exitDy=0;" edge="1" parent="1" source="RbGLpRVcjz3CA3Kn4k5E-33" target="RbGLpRVcjz3CA3Kn4k5E-1">
          <mxGeometry width="50" height="50" relative="1" as="geometry">
            <mxPoint x="530" y="335" as="sourcePoint" />
            <mxPoint x="95" y="265" as="targetPoint" />
          </mxGeometry>
        </mxCell>
      </root>
    </mxGraphModel>
  </diagram>
</mxfile>
